<svg viewBox="0 0 64 64" xmlns="http://www.w3.org/2000/svg"><path d="m2 2 4.4 5.9c.3-.6.7-1.2 1-1.9z" fill="#ff9c70"/><path d="m9.1 11.5c.7-.9 1.4-1.8 2-2.7l-3.6-2.7c-.3.6-.7 1.2-1 1.9z" fill="#ffe76e"/><path d="m11.6 14.9 3.3-3.3-3.8-2.8c-.7.9-1.4 1.8-2 2.7z" fill="#d3ff75"/><path d="m14.1 18.2 4.8-3.6-3.9-2.9-3.3 3.3z" fill="#59ffba"/><path d="m16.4 21.3c2.2-1.2 4.4-2.5 6.5-3.7l-4.1-3.1-4.8 3.6z" fill="#73deff"/><path d="m23 17.6c-2.2 1.2-4.4 2.5-6.5 3.7l3.9 5.2 4.9-4.9 1.4-1.4z" fill="#8387f7"/><g fill="#ff639b"><path d="m32.3 17.8s4.2-7.1 22.2-8.8c-18.3-2-23.5 4.6-23.5 4.6s.7 2.7 1.3 4.2"/><path d="m31.1 18.8s9-6.3 25.1-5.2l-14.7 7.1s8.4 1.2 19.8 1.9l-11.9 3.9s4.2 2.6 11.8 5.1l-8 1.2s6.3.4 8.7 6.2l-5.5-.4s2.5 5.9 5.5 9.3l-5.2-3s3 5.1 5.2 10.1l-5.4-1.6c2.5 5.9 4.8 8.4 4.8 8.4-13.5-4-30.2-43-30.2-43"/></g><path d="m29.4 20.4s11.9-5.4 28.7-1.6l-18.2 3.6s12.2.6 19.6 5.8h-11.7s7.3 1.7 10.6 7.1l-6.9-.7s7.5 3.2 10.5 9.6l-7.3-3.8s5.8 3.1 5 13.4l-4.2-8.8s1.6 10.7 4.8 13.2l-4.4-.1c2 2.2 3 3.9 3 3.9h-10.8z" fill="#fca9c9"/><path d="m28.2 19s-.6-4.4 2.6-10.9c0 0 4.1 5.1 5.1 14.2z" fill="#b2c1c0"/><path d="m10.4 53.9c1.5 1 5-3 9-3.7 15-2.8 12.2-8.6 12.2-8.6 4.1 5.1-2.2 17.1-5.8 20.4h30.4c-.2-40-25.1-43.2-25.1-43.2-.8-7.2-7-10.8-7-10.8-1.9 4.5-1 12.5-1 12.5-3.1 5.4-18.9 20.3-20.7 22.5s3.8 8.8 3.8 8.8c1.5.2 3.4 1.5 4.2 2.1" fill="#eff6f7"/><path d="m15.1 52c.8-.6 2.7-1.8 5.6-2.4 2-.4 3.9-1 5.7-1.8s3.4-1.9 4.4-3.6c.9-1.6.9-3.7.2-5.5 1.1 1.6 1.5 3.9.5 5.9-.9 2-2.8 3.3-4.7 4.1-1.9.9-3.9 1.4-6 1.7-2.4.3-4.7 1.2-5.7 1.6m-8.9-6.2c-.5.4-1.8.6-2.2.1s.3-1.6.8-1.9c.5-.4 1.2-.3 1.6.2.4.6.3 1.3-.2 1.6m9.7-2.7c-.1 2.3-1.3 4.6-3.1 6.2-.9.8-2 1.5-3.1 1.9s-2.4.6-3.6.6c2.3-.7 4.4-1.7 6-3.2.8-.7 1.5-1.6 2.2-2.5.6-.9 1.2-1.9 1.6-3" fill="#b2c1c0"/><path d="m16.4 35.2s.9-.7 1.7-.5c0 0-1.1 1.1-.3 2.9 0 0 .9-2.1 2.5-2.2 0 0-1.1 1.5.3 2.9 0 0 .3-2.1 2.3-2.8 0 0-.3 1.1.7 2.5 0 0-.3-1.9 1.1-2.9 1.4-.9 3-1.5 3.7-3.8 0 0-3.4 3.5-8.1 2.5-1.1-.4-2.9-.7-3.9 1.4" fill="#3e4347"/><path d="m25.4 21.6c-1.7-2.2-.6-8.4-.4-9.3.2-1 5.8 2.8 4.3 9.5-.1.6-.4 1.2-1 1.2s-.6-1.7-.3-2.8-.4 0-.6.7c-.3.8-.5.2-.4-.6s-.6.8-.4 1.7c.1.9 0 1.1-1.2-.4m-20.4 20.5c-.5.3-.4.5 0 .3.5-.2 2.7-.7 2.9 1.6 0 0 .1 1.1.4 0 .3-1-.3-3.7-3.3-1.9" fill="#b2c1c0"/><path d="m23 18s2.7 11 13.5 16.6c0 0-26.6-5.8-13.5-16.6m8.1.8s6.8 18 20.8 23c-13.8-13.2-10.4-20.6-21.4-25.8 0 0 0 1.3.6 2.8" fill="#ff639b"/><path d="m31.7 41.6s6.3 4.1 1.7 20.4h-7.5s9.3-11.2 5.8-20.4" fill="#b2c1c0"/></svg>